HIERARCHY
ROOT Hips
{
	OFFSET 0.00 0.00 0.00
	CHANNELS 6 Xposition Yposition Zposition Xrotation Yrotation Zrotation
	JOINT LeftUpLeg
	{
		OFFSET 3.64953 0.00000 0.00000
		CHANNELS 3 Xrotation Yrotation Zrotation
		JOINT LeftLeg
		{
			OFFSET 0.00000 -15.70580 0.00000
			CHANNELS 3 Xrotation Yrotation Zrotation
			JOINT LeftFoot
			{
				OFFSET 0.00000 -15.41867 0.00000
				CHANNELS 3 Xrotation Yrotation Zrotation
				JOINT LeftToeBase
				{
					OFFSET 0.00000 -1.53543 5.73033
					CHANNELS 3 Xrotation Yrotation Zrotation
					End Site
					{
						OFFSET 0.00000 0.00000 2.95275
					}
				}
			}
		}
	}
	JOINT RightUpLeg
	{
		OFFSET -3.64953 0.00000 0.00000
		CHANNELS 3 Xrotation Yrotation Zrotation
		JOINT RightLeg
		{
			OFFSET 0.00000 -15.70580 0.00000
			CHANNELS 3 Xrotation Yrotation Zrotation
			JOINT RightFoot
			{
				OFFSET 0.00000 -15.41867 0.00000
				CHANNELS 3 Xrotation Yrotation Zrotation
				JOINT RightToeBase
				{
					OFFSET 0.00000 -1.53543 5.73033
					CHANNELS 3 Xrotation Yrotation Zrotation
					End Site
					{
						OFFSET 0.00000 0.00000 2.95275
					}
				}
			}
		}
	}
	JOINT Spine
	{
		OFFSET 0.00000 0.03937 0.00000
		CHANNELS 3 Xrotation Yrotation Zrotation
		JOINT Spine1
		{
			OFFSET 0.00000 10.24829 0.00000
			CHANNELS 3 Xrotation Yrotation Zrotation
			JOINT Neck
			{
				OFFSET 0.00000 7.82687 0.00000
				CHANNELS 3 Xrotation Yrotation Zrotation
				JOINT Head
				{
					OFFSET 0.00000 6.90715 0.00000
					CHANNELS 3 Xrotation Yrotation Zrotation
					End Site
					{
						OFFSET 0.00000 4.52755 0.00000
					}
				}
			}
			JOINT LeftShoulder
			{
				OFFSET 0.00000 7.82687 0.00000
				CHANNELS 3 Xrotation Yrotation Zrotation
				JOINT LeftArm
				{
					OFFSET 6.71018 -0.00002 0.00000
					CHANNELS 3 Xrotation Yrotation Zrotation
					JOINT LeftForeArm
					{
						OFFSET 10.94419 -0.00004 0.00000
						CHANNELS 3 Xrotation Yrotation Zrotation
						JOINT LeftHand
						{
							OFFSET 8.52010 -0.00003 0.00000
							CHANNELS 3 Xrotation Yrotation Zrotation
							JOINT LeftHandThumb
							{
								OFFSET 0.00000 0.00000 0.00000
								CHANNELS 3 Xrotation Yrotation Zrotation
								End Site
								{
									OFFSET 0.00000 0.00000 3.93700
								}
							}
							JOINT L_Wrist_End
							{
								OFFSET 3.93700 -0.00001 0.00000
								CHANNELS 3 Xrotation Yrotation Zrotation
							}
						}
					}
				}
			}
			JOINT RightShoulder
			{
				OFFSET 0.00000 7.82687 0.00000
				CHANNELS 3 Xrotation Yrotation Zrotation
				JOINT RightArm
				{
					OFFSET -6.71018 -0.00002 0.00000
					CHANNELS 3 Xrotation Yrotation Zrotation
					JOINT RightForeArm
					{
						OFFSET -10.94419 -0.00004 0.00000
						CHANNELS 3 Xrotation Yrotation Zrotation
						JOINT RightHand
						{
							OFFSET -8.52010 -0.00003 0.00000
							CHANNELS 3 Xrotation Yrotation Zrotation
							JOINT RightHandThumb
							{
								OFFSET 0.00000 0.00000 0.00000
								CHANNELS 3 Xrotation Yrotation Zrotation
								End Site
								{
									OFFSET 0.00000 0.00000 3.93700
								}
							}
							JOINT R_Wrist_End
							{
								OFFSET -5.39369 -0.00002 0.00000
								CHANNELS 3 Xrotation Yrotation Zrotation
							}
						}
					}
				}
			}
		}
	}
}
MOTION
Frames: 12
Frame Time: 0.008333
 -39.0046 31.0617 10.0504 -0.3263 -27.0448 -0.1645 -28.4280 -5.5748 2.0086 39.5916 -0.0000 0.0000 -14.7725 -16.6227 -14.2919 6.3029 -0.0000 -0.0000 -10.8369 1.0572 2.7607 52.8905 -0.0000 0.0000 -38.1032 -8.4322 -16.0017 5.0831 -0.0000 0.0000 -2.3828 3.0574 -2.3163 10.0056 0.3139 -3.1994 0.3849 -18.2267 -1.0891 -6.3584 -12.0281 6.7383 20.0925 12.3669 -4.0493 -16.6923 -30.1775 -67.7731 -0.0000 -0.8847 -0.0000 -3.7310 4.5832 -7.9933 -0.0000 0.0000 -0.0000 -0.0000 0.0000 -0.0000 13.0081 -17.0049 4.2465 -21.3218 40.0465 77.6929 -0.0002 38.4611 0.0001 -25.6152 0.6899 3.5672 0.0000 -0.0000 -0.0000 0.0000 -0.0000 -0.0000
 -39.0273 31.1993 10.1166 -0.1870 -27.6222 -0.2303 -27.6908 -5.5426 2.2611 38.4594 -0.0000 0.0000 -14.3824 -16.1580 -14.1831 6.2326 -0.0000 0.0000 -10.8711 0.6500 2.8663 51.9481 -0.0000 0.0000 -38.0153 -8.5756 -15.9208 5.1509 -0.0000 0.0000 -2.3975 2.9415 -2.3311 9.9129 0.2362 -3.0147 0.3338 -17.7754 -1.0683 -6.2038 -11.7184 6.7219 20.0388 12.3001 -4.0604 -17.4303 -30.0723 -67.5006 -0.0000 -1.4342 -0.0000 -3.8648 4.2625 -8.2618 -0.0000 0.0000 0.0000 -0.0000 0.0000 0.0000 13.1897 -17.1374 4.3747 -20.6639 40.5315 77.3503 -0.0002 37.5800 0.0001 -25.0267 0.2461 4.6503 -0.0000 0.0000 -0.0000 -0.0000 0.0000 -0.0000
 -39.0502 31.3474 10.1754 -0.0919 -28.1843 -0.3617 -26.8568 -5.6095 2.5361 37.2062 -0.0000 0.0000 -13.9531 -15.5959 -14.0584 6.2291 0.0000 -0.0000 -10.8082 0.2073 3.0006 50.8245 -0.0000 0.0000 -37.7714 -8.4390 -15.8256 5.1484 0.0000 0.0000 -2.3594 2.8240 -2.3239 9.7994 0.1662 -2.7972 0.3087 -17.3282 -1.0403 -6.1342 -11.4006 6.7279 19.9443 12.1787 -4.0032 -18.0580 -29.7974 -67.2178 -0.0000 -2.3102 -0.0000 -4.3282 4.0109 -8.7238 0.0000 -0.0000 0.0000 0.0000 -0.0000 0.0000 13.3120 -17.2574 4.4905 -19.7874 40.9869 76.8916 -0.0002 36.8241 0.0001 -24.6522 -0.1588 5.3764 0.0000 -0.0000 0.0000 0.0000 -0.0000 0.0000
 -39.0687 31.5008 10.2322 0.0134 -28.8341 -0.4333 -25.9756 -5.6680 2.7744 35.8440 0.0000 -0.0000 -13.4856 -14.9498 -13.9890 6.3689 0.0000 0.0000 -10.7460 -0.1792 3.0529 49.6443 0.0000 -0.0000 -37.4587 -8.0978 -15.5852 4.7321 0.0000 0.0000 -2.3556 2.7537 -2.3068 9.7445 0.1247 -2.6562 0.2065 -16.8817 -1.0581 -5.9924 -11.0874 6.8151 19.7579 12.0563 -3.9053 -18.3709 -29.8540 -66.7929 -0.0000 -3.2813 -0.0000 -5.5501 3.0600 -9.0965 -0.0000 -0.0000 0.0000 -0.0000 -0.0000 0.0000 13.3606 -17.4369 4.4846 -19.1628 41.2381 76.7470 -0.0002 35.7379 0.0000 -24.1787 -0.4588 6.4505 0.0000 0.0000 -0.0000 0.0000 0.0000 -0.0000
 -39.0946 31.6553 10.2820 0.0210 -29.4160 -0.6029 -24.9895 -5.7892 3.0527 34.4253 0.0000 0.0000 -12.9193 -14.3484 -13.8303 6.2476 0.0000 0.0000 -10.4974 -0.6068 3.1540 48.2876 0.0000 -0.0000 -37.1403 -7.7008 -14.8868 4.5076 0.0000 0.0000 -2.2801 2.6221 -2.2917 9.6671 0.0341 -2.4708 0.1906 -16.4182 -1.0251 -5.9521 -10.7329 6.8890 19.5903 11.9192 -3.7264 -18.9665 -29.3172 -66.5697 -0.0000 -4.3238 -0.0000 -6.2591 2.5555 -9.5229 -0.0000 -0.0000 0.0000 -0.0000 -0.0000 0.0000 13.4124 -17.5005 4.5231 -18.2461 41.4937 76.3361 -0.0001 34.8949 0.0000 -23.8137 -0.8434 6.9342 -0.0000 0.0000 -0.0000 -0.0000 0.0000 -0.0000
 -39.1222 31.8074 10.3298 0.0413 -30.0302 -0.7547 -23.9950 -5.8771 3.3399 32.9603 -0.0000 0.0000 -12.2743 -13.7743 -13.6095 6.0757 -0.0000 -0.0000 -10.2300 -0.9521 3.2486 46.8898 -0.0000 0.0000 -36.8059 -7.2579 -14.2668 4.3286 0.0000 0.0000 -2.2614 2.5030 -2.2777 9.6537 -0.0520 -2.3050 0.1795 -15.9534 -0.9786 -5.9666 -10.3699 6.9705 19.4430 11.7799 -3.5415 -19.4846 -28.8693 -66.2582 -0.0000 -5.5466 -0.0000 -7.2575 2.1342 -10.0405 -0.0000 -0.0000 -0.0000 -0.0000 -0.0000 -0.0000 13.4171 -17.5612 4.5631 -17.2668 41.6768 75.8659 -0.0001 34.0511 0.0000 -23.6847 -1.0873 7.5846 0.0000 -0.0000 0.0000 0.0000 -0.0000 0.0000
 -39.1460 31.9535 10.3706 0.0573 -30.6717 -0.8884 -23.0549 -5.9493 3.6057 31.5692 -0.0000 0.0000 -11.5885 -13.1782 -13.2870 5.9327 0.0000 0.0000 -9.9832 -1.2839 3.2897 45.5739 -0.0000 0.0000 -36.4270 -6.7215 -13.7790 4.2258 -0.0000 0.0000 -2.2034 2.3809 -2.2728 9.5643 -0.1427 -2.1599 0.1842 -15.4720 -0.9407 -5.9312 -9.9722 7.0658 19.2931 11.6734 -3.2948 -19.9515 -28.4449 -65.9651 -0.0000 -6.8221 -0.0000 -8.2439 1.7665 -10.5964 0.0000 -0.0000 -0.0000 0.0000 -0.0000 -0.0000 13.4418 -17.5822 4.5635 -16.2791 41.8065 75.3954 -0.0001 33.1920 0.0000 -23.6905 -1.2962 7.9991 0.0000 0.0000 0.0000 0.0000 0.0000 0.0000
 -39.1675 32.0959 10.4016 0.0907 -31.3321 -1.0193 -22.1688 -5.9455 3.9029 30.1968 -0.0000 0.0000 -10.8339 -12.6751 -13.0123 5.7204 0.0000 -0.0000 -9.7491 -1.4630 3.3498 44.2516 -0.0000 0.0000 -36.0300 -6.3183 -13.2718 3.9274 -0.0000 -0.0000 -2.1785 2.2608 -2.2589 9.5304 -0.2323 -2.0058 0.1655 -14.9897 -0.8977 -5.9464 -9.5447 7.1321 19.1254 11.5363 -3.0558 -20.3814 -28.0620 -65.6106 -0.0000 -8.1037 -0.0000 -9.2709 1.3004 -11.1021 0.0000 0.0000 0.0000 0.0000 0.0000 0.0000 13.4933 -17.6036 4.5674 -15.3682 41.9100 74.8939 -0.0001 32.3278 0.0000 -23.6763 -1.5303 8.3297 0.0000 -0.0000 0.0000 0.0000 -0.0000 0.0000
 -39.1879 32.2319 10.4234 0.1105 -31.9985 -1.1808 -21.3545 -5.8464 4.2452 28.9341 -0.0000 0.0000 -10.0843 -12.2773 -12.6591 5.6093 -0.0000 -0.0000 -9.5133 -1.5198 3.4391 42.9987 -0.0000 0.0000 -35.5322 -6.0144 -12.9419 3.7736 0.0000 -0.0000 -2.1395 2.1447 -2.2336 9.4970 -0.3141 -1.8341 0.1714 -14.5217 -0.8621 -5.9926 -9.1098 7.2026 18.9729 11.3791 -2.8100 -20.7600 -27.7580 -65.1838 -0.0000 -9.4754 -0.0000 -10.2918 1.0442 -11.6459 -0.0000 -0.0000 0.0000 -0.0000 -0.0000 0.0000 13.5160 -17.6106 4.5657 -14.4889 41.8160 74.4018 -0.0001 31.4984 0.0000 -23.6626 -1.9304 8.6568 0.0000 -0.0000 -0.0000 0.0000 -0.0000 -0.0000
 -39.1938 32.3591 10.4402 0.2389 -32.6464 -1.2131 -20.7112 -5.6787 4.5065 27.7415 -0.0000 0.0000 -9.2924 -11.9361 -12.2979 5.3676 -0.0000 0.0000 -9.4127 -1.4934 3.4134 41.8845 -0.0000 0.0000 -35.1049 -5.7593 -12.6467 3.7497 -0.0000 0.0000 -2.1525 1.9959 -2.2194 9.4019 -0.4434 -1.7227 0.1751 -14.0267 -0.8493 -5.9858 -8.6476 7.2814 18.8561 11.2342 -2.5744 -21.0850 -27.4862 -64.6759 -0.0000 -10.8733 -0.0000 -11.2498 0.7951 -12.1624 -0.0000 -0.0000 0.0000 -0.0000 -0.0000 0.0000 13.6593 -17.6108 4.6126 -13.6845 41.9035 73.8442 -0.0001 30.5658 0.0000 -23.7816 -1.8937 8.6148 0.0000 -0.0000 0.0000 0.0000 -0.0000 0.0000
 -39.2204 32.4761 10.4522 0.2014 -33.3116 -1.4444 -19.9858 -5.2994 4.9671 26.6803 -0.0000 0.0000 -8.6326 -11.8279 -12.0352 5.2301 0.0000 0.0000 -9.0809 -1.2844 3.5615 40.6789 -0.0000 0.0000 -34.7583 -5.7102 -12.2821 3.5436 0.0000 0.0000 -2.1368 1.9323 -2.1995 9.4690 -0.4634 -1.5021 0.1449 -13.6231 -0.8097 -5.9751 -8.2545 7.3522 18.6223 11.0218 -2.2578 -21.4729 -27.3738 -64.2372 -0.0000 -11.9691 -0.0000 -12.1537 0.0654 -12.5030 -0.0000 -0.0000 -0.0000 -0.0000 -0.0000 -0.0000 13.6093 -17.7270 4.6072 -12.8203 41.7069 73.3611 -0.0001 29.7108 0.0000 -23.7291 -2.0960 8.6656 -0.0000 0.0000 -0.0000 -0.0000 0.0000 -0.0000
 -39.2280 32.5805 10.4626 0.2975 -33.9314 -1.4930 -19.4700 -4.8773 5.2713 25.7219 -0.0000 0.0000 -7.9586 -11.7397 -11.6039 5.1162 0.0000 0.0000 -8.9472 -1.1617 3.5043 39.7794 -0.0000 0.0000 -34.4977 -5.5104 -12.1263 3.8805 -0.0000 -0.0000 -2.1738 1.7765 -2.1911 9.4137 -0.5990 -1.3811 0.1888 -13.1420 -0.8157 -5.9669 -7.8127 7.4645 18.5474 10.8656 -2.0481 -21.8390 -27.1774 -63.6411 -0.0000 -13.3324 -0.0000 -12.6073 -0.0068 -12.6198 0.0000 -0.0000 0.0000 0.0000 -0.0000 0.0000 13.7985 -17.7369 4.6875 -12.1133 41.6653 72.7475 -0.0001 28.8273 0.0000 -23.8840 -2.1366 8.5039 -0.0000 0.0000 0.0000 -0.0000 0.0000 0.0000
